<svg width="12" height="16" viewBox="0 0 12 16" fill="none" xmlns="http://www.w3.org/2000/svg">
<path d="M4.18564 0.957738C3.9632 1.00107 3.65988 1.16573 3.49232 1.33329C3.21211 1.6135 3.08789 1.97172 3.085 2.49171V2.71704H2.21257C1.22748 2.71704 1.01081 2.74015 0.750819 2.86148C0.516824 2.97126 0.236607 3.24858 0.12972 3.4768C-0.112942 3.99101 -0.0089443 4.58611 0.389715 4.98188C0.528379 5.12055 0.854817 5.31699 0.944371 5.31699C0.967482 5.31699 0.976149 6.53608 0.981926 9.77157L0.990593 14.229L1.06859 14.4602C1.17837 14.7808 1.33436 15.0264 1.55392 15.2373C1.78213 15.451 2.02191 15.5839 2.32235 15.659C2.53901 15.7139 2.65456 15.7168 6.00272 15.7168C9.35088 15.7168 9.46644 15.7139 9.6831 15.659C10.3851 15.4799 10.8906 14.8964 11.0004 14.1366C11.0177 14.0153 11.0293 12.2906 11.0293 9.63002V5.32277L11.1391 5.28521C11.5522 5.15233 11.9104 4.71033 11.9855 4.24812C12.0635 3.75991 11.8208 3.21392 11.402 2.94526C11.0871 2.74593 11.038 2.73726 9.92865 2.72282L8.92911 2.71126L8.91178 2.37327C8.89156 2.00061 8.83089 1.78394 8.68934 1.55862C8.49579 1.25818 8.14624 1.02129 7.79669 0.954848C7.60603 0.920182 4.37053 0.920182 4.18564 0.957738ZM7.83713 1.68284C8.09713 1.82439 8.20113 2.02372 8.22135 2.41949L8.23579 2.71704H6.00272H3.77254L3.78121 2.40504C3.79276 2.1306 3.80143 2.08149 3.87365 1.96016C3.91698 1.88505 3.99209 1.7955 4.0412 1.76083C4.24053 1.61928 4.23187 1.61928 6.04605 1.62795C7.57136 1.63373 7.75913 1.6395 7.83713 1.68284ZM10.9571 3.48836C11.1044 3.56636 11.1882 3.65591 11.2488 3.80035C11.3586 4.06612 11.2662 4.38678 11.0322 4.55145L10.908 4.63811L6.06628 4.64678C2.68345 4.65256 1.18992 4.64678 1.11481 4.62367C0.825929 4.53989 0.641044 4.20768 0.716153 3.90435C0.771041 3.67613 0.953038 3.49702 1.19281 3.43636C1.24192 3.4248 3.43166 3.41903 6.0605 3.41903L10.8415 3.4248L10.9571 3.48836ZM10.3302 9.60691C10.336 12.5044 10.3273 13.9171 10.3071 14.0557C10.2464 14.4544 10.0384 14.749 9.70621 14.9137L9.51266 15.009L6.07783 15.0177C2.35123 15.0264 2.44945 15.0293 2.19813 14.8704C1.96124 14.7201 1.7648 14.4284 1.70125 14.1337C1.67814 14.0239 1.66947 12.75 1.66947 9.6618V5.34588L5.99694 5.35166L10.3215 5.36032L10.3302 9.60691Z" fill="#4A4A4A"/>
<path d="M3.72662 6.38296C3.6804 6.43207 3.63418 6.51007 3.62262 6.56207C3.61396 6.61118 3.60529 8.12782 3.60529 9.93045C3.60529 13.4231 3.6024 13.3162 3.74107 13.4433C3.83062 13.5213 3.98373 13.5357 4.10506 13.4779C4.31017 13.3797 4.29861 13.6137 4.29861 9.89579C4.29861 6.2703 4.30728 6.45518 4.14261 6.34541C4.10217 6.31941 4.01262 6.29919 3.9404 6.29919C3.8364 6.29919 3.79595 6.31652 3.72662 6.38296Z" fill="#4A4A4A"/>
<path d="M5.79485 6.36563C5.75441 6.4003 5.7053 6.45807 5.68796 6.49274C5.66485 6.53607 5.65619 7.53561 5.65619 9.89579C5.65619 13.6137 5.64463 13.3797 5.84974 13.4779C5.97107 13.5357 6.12418 13.5213 6.21373 13.4433C6.35239 13.3162 6.34951 13.4231 6.34951 9.93045C6.34951 8.12782 6.34084 6.61118 6.33217 6.56207C6.32062 6.51007 6.2744 6.43207 6.22817 6.38296C6.1184 6.27319 5.91329 6.26452 5.79485 6.36563Z" fill="#4A4A4A"/>
<path d="M7.80562 6.39737L7.7074 6.49559V9.87842C7.7074 12.7875 7.71318 13.2757 7.75073 13.345C7.79406 13.4346 7.95006 13.5212 8.06272 13.5212C8.16961 13.5212 8.32272 13.4028 8.36316 13.2901C8.40938 13.1572 8.41516 6.71515 8.37183 6.55337C8.3285 6.39737 8.19561 6.29915 8.03384 6.29915C7.92406 6.29915 7.88939 6.3136 7.80562 6.39737Z" fill="#4A4A4A"/>
</svg>
