<svg width="12" height="13" viewBox="0 0 12 13" fill="none" xmlns="http://www.w3.org/2000/svg">
<path d="M9.06184 0.118547C8.81666 0.186098 8.67905 0.251147 8.49641 0.381246C8.41385 0.443793 6.78262 2.05501 4.87368 3.96645L1.40606 7.43907L0.703031 9.56818C0.315238 10.7391 0 11.7248 0 11.7573C0 11.9024 0.170128 12.0801 0.312736 12.0801C0.337755 12.0801 1.3235 11.7598 2.50189 11.367L4.641 10.654L8.17117 7.12133C12.0191 3.27093 11.8064 3.4986 11.939 3.07328C12.0266 2.78806 12.0191 2.38776 11.9215 2.10004C11.8064 1.75979 11.6763 1.59466 11.0308 0.959182C10.4129 0.351223 10.3003 0.266159 9.97753 0.153574C9.72234 0.0635061 9.32204 0.0484943 9.06184 0.118547ZM9.81241 0.796559C9.99755 0.866612 10.1352 0.981699 10.6605 1.5146C11.2535 2.11255 11.3336 2.24015 11.3361 2.60542C11.3386 2.93818 11.2435 3.13082 10.9082 3.46107L10.7081 3.66122L9.55471 2.51035L8.40384 1.35948L8.62651 1.14432C8.7491 1.02673 8.90422 0.899137 8.97177 0.861609C9.21946 0.721502 9.54721 0.696484 9.81241 0.796559ZM9.08936 2.99322L10.2327 4.13658L7.35555 7.01375L4.47838 9.89093L3.32751 8.74006L2.17664 7.58919L5.04631 4.71952C6.6275 3.13833 7.92348 1.84735 7.93099 1.84735C7.93849 1.84735 8.45889 2.36274 9.08936 2.99322ZM3.8429 10.2212C3.82789 10.2362 0.913189 11.2044 0.883167 11.2044C0.865653 11.2044 1.0533 10.609 1.34101 9.74582C1.60871 8.94521 1.83138 8.2722 1.83889 8.25469C1.8489 8.22967 2.17915 8.54241 2.85215 9.21542C3.40257 9.76583 3.8479 10.2187 3.8429 10.2212Z" fill="#4A4A4A"/>
</svg>
